<svg width="628" height="500" viewBox="0 0 628 500" fill="none" xmlns="http://www.w3.org/2000/svg">
<path d="M130.367 0C94.5536 0 68.0521 31.3462 69.2388 65.3404C70.3788 97.9983 68.898 140.299 58.2498 174.794C47.5698 209.388 29.5049 231.303 0 234.117V265.883C29.5049 268.697 47.5698 290.612 58.2498 325.209C68.898 359.703 70.3788 401.999 69.2388 434.66C68.0521 468.649 94.5536 500 130.372 500H497.34C533.156 500 559.65 468.654 558.463 434.66C557.325 402.002 558.804 359.703 569.452 325.209C580.139 290.614 598.155 268.695 627.66 265.883V234.117C598.155 231.303 580.139 209.388 569.454 174.794C558.804 140.304 557.325 98.0008 558.463 65.3404C559.65 31.3511 533.156 0 497.34 0H130.362H130.367ZM425.534 307.781C425.534 354.591 390.62 382.978 332.68 382.978H234.044C231.223 382.977 228.517 381.856 226.523 379.861C224.528 377.866 223.408 375.161 223.408 372.34V127.66C223.407 126.263 223.682 124.879 224.217 123.588C224.751 122.297 225.535 121.124 226.523 120.136C227.511 119.148 228.684 118.364 229.974 117.829C231.265 117.295 232.649 117.019 234.046 117.019H332.116C380.428 117.019 412.135 143.192 412.135 183.372C412.135 211.575 390.804 236.824 363.631 241.245V242.718C400.626 246.776 425.534 272.395 425.534 307.781ZM321.921 150.744H265.684V230.182H313.053C349.668 230.182 369.861 215.437 369.861 189.08C369.861 164.383 352.495 150.744 321.921 150.744ZM265.684 261.702V349.244H323.993C362.113 349.244 382.311 333.947 382.311 305.197C382.311 276.443 361.552 261.698 321.541 261.698H265.684V261.702Z" fill="black"/>
</svg>
