<svg width="570" height="500" viewBox="0 0 570 500" fill="none" xmlns="http://www.w3.org/2000/svg">
<path d="M173.348 179.137L281.34 116.788C282.669 116.021 284.175 115.617 285.709 115.617C287.243 115.617 288.75 116.021 290.078 116.788L398.07 179.137C399.398 179.904 400.501 181.007 401.268 182.335C402.035 183.663 402.439 185.17 402.439 186.703V311.402C402.439 314.522 400.772 317.405 398.07 318.968L290.078 381.318C288.75 382.085 287.243 382.489 285.709 382.489C284.175 382.489 282.669 382.085 281.34 381.318L173.348 318.968C172.02 318.201 170.918 317.099 170.151 315.77C169.384 314.442 168.98 312.936 168.979 311.402V186.701C168.982 183.58 170.647 180.7 173.348 179.137Z" fill="black"/>
<path d="M565.677 238.834L436.509 14.1188C431.817 5.99436 423.151 0 413.768 0H155.43C146.047 0 137.376 5.99436 132.684 14.1188L3.51857 238.338C-1.17286 246.465 -1.17286 256.721 3.51857 264.848L132.684 487.722C137.376 495.847 146.047 500 155.43 500H413.765C423.148 500 431.817 495.971 436.507 487.845L565.674 264.608C570.37 256.486 570.37 246.958 565.674 238.834H565.677ZM458.719 346.893C458.719 350.194 456.731 353.252 453.867 354.906L289.336 449.831C287.919 450.642 286.315 451.069 284.682 451.069C283.049 451.069 281.445 450.642 280.029 449.831L115.37 354.906C112.509 353.252 110.505 350.197 110.505 346.89V157.036C110.505 153.73 112.48 150.677 115.344 149.023L279.866 54.096C281.282 53.283 282.886 52.8552 284.519 52.8552C286.151 52.8552 287.755 53.283 289.171 54.096L453.838 149.023C456.704 150.677 458.719 153.73 458.719 157.036V346.893Z" fill="black"/>
</svg>
