<svg width="862" height="500" viewBox="0 0 862 500" fill="none" xmlns="http://www.w3.org/2000/svg">
<path d="M862 486.557C849.454 491.301 835.606 491.29 823.067 486.528C810.529 481.766 800.167 472.581 793.938 460.706L670.026 289.405L652.067 265.457L508.293 460.921C502.438 472.298 492.639 481.153 480.727 485.832C468.815 490.51 455.607 490.691 443.571 486.342L628.829 237.882L456.501 13.4427C468.892 8.97889 482.443 8.91972 494.873 13.2752C507.303 17.6306 517.851 26.1346 524.743 37.3552L653.181 210.774L782.337 38.0733C788.237 26.8993 798.039 18.2822 809.879 13.8603C821.719 9.43827 834.772 9.51968 846.556 14.089L779.679 102.809L689.097 220.684C686.582 222.927 684.569 225.676 683.191 228.752C681.812 231.827 681.1 235.159 681.1 238.528C681.1 241.898 681.812 245.23 683.191 248.305C684.569 251.381 686.582 254.13 689.097 256.373L861.641 486.593L862 486.557ZM0.0722642 234.794L15.1573 160.292C56.6051 12.976 225.557 -48.3131 341.783 42.8845C409.845 96.3464 426.834 172.033 423.494 257.342H40.0834C33.8698 409.686 143.847 501.673 284.46 454.674C307.255 446.472 327.659 432.745 343.843 414.723C360.028 396.702 371.488 374.949 377.197 351.412C384.632 327.5 396.879 323.407 419.363 330.301C415.617 359.469 405.302 387.408 389.196 412.016C373.089 436.625 351.611 457.262 326.375 472.375C284.691 495.168 236.865 504.202 189.735 498.186C142.605 492.169 98.5844 471.41 63.968 438.876C29.7405 400.364 9.05416 351.717 5.06468 300.356C5.06468 291.919 2.19135 284.02 0.251847 276.444C0.0770062 262.573 -0.00680107 248.702 0.000430866 234.83L0.0722642 234.794ZM40.5503 224.526H387.29C385.135 114.083 315.42 35.7395 222.432 35.0214C118.92 33.5852 44.8603 110.206 40.2989 224.023L40.5503 224.526Z" fill="black"/>
</svg>
