<svg width="500" height="500" viewBox="0 0 500 500" fill="none" xmlns="http://www.w3.org/2000/svg">
<path d="M490.535 227.718L272.219 9.43329C269.23 6.44267 265.681 4.07029 261.775 2.45169C257.868 0.833096 253.681 0 249.453 0C245.225 0 241.038 0.833096 237.132 2.45169C233.225 4.07029 229.676 6.44267 226.687 9.43329L181.374 54.7466L238.875 112.248C245.656 109.932 252.952 109.57 259.93 111.202C266.907 112.834 273.285 116.395 278.336 121.479C283.387 126.562 286.907 132.963 288.494 139.951C290.081 146.939 289.672 154.232 287.313 160.998L342.72 216.437C350.918 213.551 359.854 213.542 368.057 216.412C376.26 219.282 383.241 224.86 387.851 232.228C392.46 239.595 394.424 248.313 393.417 256.945C392.411 265.577 388.495 273.61 382.315 279.719C376.058 286.015 367.81 289.942 358.979 290.831C350.148 291.72 341.282 289.516 333.896 284.594C326.509 279.673 321.061 272.339 318.481 263.847C315.902 255.354 316.35 246.229 319.751 238.031L268.094 186.343V322.376C275.946 326.263 282.229 332.723 285.895 340.681C289.561 348.638 290.389 357.611 288.242 366.105C286.094 374.599 281.1 382.1 274.092 387.359C267.084 392.617 258.486 395.314 249.73 395.002C240.974 394.689 232.59 391.385 225.975 385.64C219.36 379.895 214.914 372.057 213.378 363.432C211.842 354.806 213.308 345.915 217.532 338.239C221.757 330.564 228.484 324.568 236.594 321.251V183.968C231.915 182.051 227.662 179.226 224.08 175.658C220.498 172.089 217.658 167.847 215.723 163.176C213.789 158.505 212.798 153.497 212.807 148.441C212.817 143.385 213.828 138.38 215.781 133.717L159.123 77.0282L9.43329 226.718C6.44267 229.708 4.07029 233.257 2.45169 237.163C0.833096 241.069 0 245.256 0 249.484C0 253.713 0.833096 257.9 2.45169 261.806C4.07029 265.712 6.44267 269.261 9.43329 272.25L227.75 490.567C230.739 493.557 234.288 495.93 238.194 497.548C242.1 499.167 246.287 500 250.516 500C254.744 500 258.931 499.167 262.837 497.548C266.743 495.93 270.293 493.557 273.282 490.567L490.567 273.282C496.599 267.241 499.987 259.053 499.987 250.516C499.987 241.979 496.599 233.791 490.567 227.75" fill="black"/>
</svg>
