<svg width="500" height="500" viewBox="0 0 500 500" fill="none" xmlns="http://www.w3.org/2000/svg">
<path fill-rule="evenodd" clip-rule="evenodd" d="M469.82 3.72144C463.889 1.26453 457.531 0 451.111 0H48.8887C35.9229 0 23.4873 5.15076 14.3193 14.3192C5.15039 23.4875 0 35.9227 0 48.8888V451.111C0 464.077 5.15039 476.512 14.3193 485.681C23.4873 494.849 35.9229 500 48.8887 500H451.111C457.531 500 463.889 498.735 469.82 496.279C475.751 493.822 481.141 490.22 485.681 485.681C490.22 481.141 493.822 475.751 496.279 469.82C498.735 463.889 500 457.531 500 451.111V48.8888C500 42.4686 498.735 36.1113 496.279 30.1798C493.822 24.2484 490.22 18.8589 485.681 14.3192C481.141 9.77942 475.751 6.17822 469.82 3.72144ZM335.875 390.625C345.938 407.083 359.042 419.167 382.229 419.167C401.688 419.167 414.125 409.438 414.125 395.979C414.125 379.875 401.354 374.167 379.917 364.792L368.167 359.75C334.25 345.312 311.75 327.208 311.75 288.979C311.75 253.729 338.604 226.896 380.562 226.896C410.438 226.896 431.896 237.292 447.375 264.521L410.792 288C402.729 273.562 394.042 267.875 380.562 267.875C366.812 267.875 358.062 276.604 358.062 288C358.062 302.104 366.792 307.792 386.958 316.542L398.708 321.562C438.625 338.708 461.167 356.146 461.167 395.375C461.167 437.688 427.938 460.854 383.312 460.854C339.667 460.854 311.479 440.062 297.688 412.812L335.875 390.625ZM169.896 394.688C177.27 407.81 183.998 418.85 200.137 418.854C200.133 418.854 200.129 418.854 200.125 418.854H200.146C200.143 418.854 200.14 418.854 200.137 418.854C215.568 418.851 225.312 412.827 225.312 389.354V229.562H272.292V389.979C272.292 438.625 243.771 460.771 202.125 460.771C164.521 460.771 142.729 441.312 131.646 417.854L169.896 394.688Z" fill="black"/>
</svg>
