<svg width="439" height="501" viewBox="0 0 439 501" fill="none" xmlns="http://www.w3.org/2000/svg">
<path d="M237.114 183.813L174.995 0.5H438.907L376.573 184.347C373.891 184.988 371.254 185.805 368.68 186.793L307.102 61.1767L245.347 186.05C242.656 185.119 239.906 184.372 237.114 183.813ZM34.1583 483.891C117.167 542.197 209.24 429.376 334.656 415.163C406.678 410.895 455.631 366.805 427.738 298.553C375.878 330.495 327.41 288.638 327.749 246.636H288.342C287.048 284.135 258.842 313.637 215.12 309.251C180.897 360.447 141.233 389.212 96.2276 403.833C65.8086 389.795 37.1827 355.6 50.1612 309.929C44.5136 309.298 38.977 307.908 33.7012 305.797C-8.13663 383.921 -13.3065 445.663 34.1583 483.891ZM95.9561 246.641C95.9561 216.969 63.6133 198.323 37.8799 213.159C12.1466 227.995 12.1446 265.288 37.8799 280.123C63.6133 294.96 95.9561 276.314 95.9561 246.641ZM263.347 246.273C263.347 216.601 231.003 197.955 205.27 212.792C179.536 227.629 179.535 264.92 205.27 279.755C231.004 294.592 263.346 275.946 263.346 246.273H263.347ZM430.108 246.273C430.108 216.601 397.765 197.955 372.031 212.792C346.298 227.629 346.297 264.92 372.031 279.755C397.765 294.592 430.108 275.946 430.108 246.273Z" fill="black"/>
</svg>
