<svg width="499" height="500" viewBox="0 0 499 500" fill="none" xmlns="http://www.w3.org/2000/svg">
<path d="M287 134.5L286.5 0H211.501L212.001 134.5L249.5 186.001L287 134.5ZM212.001 365V500H287V365L249.5 313.5L212.001 365Z" fill="black"/>
<path d="M287 365L366.001 474L426.5 430L347.5 321.001L287 301.499V365ZM212.001 134.5L132.5 25.4995L72.0002 69.4999L151.001 178.5L212.001 198V134.5Z" fill="black"/>
<path d="M151.001 178.5L22.9992 137L0 207.999L128 250L188.499 230L151.001 178.5ZM310.001 269.5L347.5 321.001L475.501 362.5L498.501 291.5L370.501 250L310.001 269.5Z" fill="black"/>
<path d="M370.501 250L498.501 207.999L475.501 137L347.5 178.5L310.001 230L370.501 250ZM128 250L0 291.5L22.9992 362.5L151.001 321.001L188.499 269.5L128 250Z" fill="black"/>
<path d="M151.001 321.001L72.0002 430L132.5 474L212.001 365V301.499L151.001 321.001ZM347.5 178.5L426.5 69.4999L366.001 25.4995L287 134.5V198L347.5 178.5Z" fill="black"/>
</svg>
