<svg width="233" height="500" viewBox="0 0 233 500" fill="none" xmlns="http://www.w3.org/2000/svg">
<path d="M159.555 55.5278C138.545 30.5153 120.286 5.50275 116.784 0H116.033C112.532 5.25263 94.2726 30.5153 73.2621 55.5278C-106.828 285.393 101.776 440.47 101.776 440.47L103.527 441.721C105.028 465.483 109.03 500 109.03 500H124.538C124.538 500 128.29 465.733 129.79 441.721L131.541 440.22C131.541 440.22 339.645 285.393 159.555 55.5278ZM116.033 436.968C111.65 433.367 107.629 429.346 104.027 424.962L116.033 174.837L127.289 424.962C123.915 429.302 120.147 433.321 116.033 436.968Z" fill="black"/>
</svg>
