<svg width="511" height="500" viewBox="0 0 511 500" fill="none" xmlns="http://www.w3.org/2000/svg">
<path d="M504.766 488.162L494.167 477.884C484.124 464.546 471.204 452.83 457.644 443.103C446.831 435.34 422.555 424.855 418.042 412.276L417.212 411.486C424.881 410.619 433.834 407.847 440.912 405.947C452.799 402.763 462.611 403.585 474.887 400.417C480.421 398.837 486.632 397.253 490.683 395.673V392.513C486.632 386.148 480.851 377.722 474.085 371.96C456.384 356.889 437.456 341.83 417.564 329.271C406.532 322.311 393.09 317.786 381.402 311.883C377.468 309.893 370.657 308.86 368.056 305.554C361.91 297.727 358.625 287.801 353.885 278.682C343.963 259.571 334.24 238.703 325.448 218.596C319.452 204.886 315.551 191.371 308.072 179.071C272.177 120.054 233.547 84.4387 173.7 49.4267C160.958 41.9803 145.628 39.0431 129.422 35.1943C120.736 34.6717 112.038 34.1409 103.344 33.6102C98.0324 31.3981 92.5104 24.9038 87.5353 21.7518C67.6998 9.22499 16.843 -18.0205 2.15675 17.8017C-7.11684 40.4124 16.0124 62.4681 24.2853 73.9294C30.0991 81.9593 37.5333 90.9736 41.6779 100.012C44.4126 105.956 44.8785 111.915 47.2161 118.199C52.9609 133.683 57.9563 150.529 65.3946 164.834C69.1502 172.078 73.2907 179.703 78.043 186.177C80.9519 190.151 85.9432 191.901 86.7332 198.035C81.8553 204.866 81.5758 215.472 78.833 224.126C66.4763 263.08 71.1435 311.502 89.1113 340.331C94.6212 349.188 107.61 368.168 125.472 360.884C141.094 354.523 138.542 334.801 143.011 317.405C144.02 313.467 142.261 310.566 146.313 307.92V308.71C150.458 318.328 154.892 327.817 159.609 337.167C170.143 354.13 187.519 371.855 203.356 383.815C211.568 390.017 219.237 400.737 227.34 404.367V403.958H228.235C226.181 399.907 222.961 399.23 220.335 396.65C214.149 390.589 207.266 382.948 202.157 376C187.75 356.444 175.021 334.992 163.422 312.709C157.879 302.07 153.062 290.309 148.395 279.484C146.6 275.311 146.621 268.983 142.869 266.823C137.752 274.756 130.221 281.165 126.262 290.536C119.938 305.51 119.124 323.773 116.778 342.705C115.389 343.2 116.008 342.859 115.194 343.491C104.182 340.838 100.317 329.506 96.2215 319.779C85.8702 295.187 83.9499 255.593 93.0574 227.29C95.4153 219.961 106.066 196.901 101.752 190.131C99.6935 183.385 92.9034 179.476 89.1073 174.318C84.4036 167.942 79.7121 159.547 76.4548 152.182C67.9834 133.015 64.0333 111.49 55.1122 92.1079C50.8461 82.8425 43.6387 73.4635 37.7197 65.2311C31.1686 56.1034 23.8275 49.3822 18.7431 38.3503C16.9402 34.4286 14.4851 28.1489 17.163 24.1178C18.0138 21.3994 19.2171 20.265 21.9072 19.3777C26.4974 15.8409 39.2592 20.5526 44.0398 22.5337C56.7166 27.8005 67.2988 32.6622 78.0389 39.7764C83.1882 43.1957 88.4064 47.4335 94.6374 51.4848H101.752C112.881 51.4848 125.347 52.4248 135.747 55.5848C154.12 61.1717 170.588 69.9348 185.546 79.3785C231.108 108.151 268.36 149.143 293.847 197.995C297.947 205.862 299.722 213.386 303.332 221.728C310.616 238.553 319.796 255.872 327.044 272.325C334.28 288.745 341.329 305.311 351.555 318.973C356.931 326.152 377.69 330.009 387.126 333.999C393.742 336.791 404.579 339.707 410.843 343.479C422.807 350.699 434.398 359.296 445.628 367.2C451.235 371.146 468.478 379.816 469.341 386.963C441.536 386.201 420.303 388.794 402.149 396.447C396.991 398.623 388.759 398.683 387.916 405.145C390.752 408.115 391.194 412.555 393.446 416.21C397.777 423.218 405.098 432.626 411.629 437.552C418.767 442.94 426.117 448.697 433.766 453.361C447.374 461.654 462.559 466.394 475.661 474.703C483.383 479.605 491.696 485.776 499.219 491.302C502.947 494.036 502.829 498.286 510.932 500V499.214C506.885 495.993 507.099 491.545 504.766 488.162ZM115.984 85.7878C110.187 85.6784 105.799 86.4239 101.748 87.3638V87.9553H102.55C105.317 92.0067 110.199 97.395 113.614 102.289L121.522 118.932L122.304 118.174C127.202 114.719 129.447 109.217 129.418 100.79C127.462 98.7279 127.166 96.1472 125.472 93.6839C123.212 90.4064 118.832 88.5468 115.984 85.7878Z" fill="black"/>
</svg>
