<svg width="2017" height="485" viewBox="0 0 2017 485" fill="none" xmlns="http://www.w3.org/2000/svg">
<path d="M1598.1 0.20174H2016.84V77.47H1850.73V483.968H1767.67V77.47H1598.1V0.20174Z" fill="black"/>
<path d="M909.444 0.20174V77.47H573.8V201.771H843.725V279.039H573.8V406.7H909.444V483.968H490.745V77.47H490.711V0.20174H909.444Z" fill="black"/>
<path d="M1118.53 0.403506H1009.84L1399.15 484.17H1508.16L1313.48 242.453L1507.85 0.772589L1399.15 0.940522L1259.06 174.885L1118.53 0.403506Z" fill="black"/>
<path d="M1230.07 345.96L1175.64 278.3L1009.53 484.539H1118.53L1230.07 345.96Z" fill="black"/>
<path fill-rule="evenodd" clip-rule="evenodd" d="M493.656 483.968L103.818 0H0V483.766H83.0545V103.405L389.318 483.968H493.656Z" fill="black"/>
</svg>
