<svg width="456" height="500" viewBox="0 0 456 500" fill="none" xmlns="http://www.w3.org/2000/svg">
<path d="M442.771 163.563L427.854 155.272C450.792 122.584 464.48 73.4587 447.313 0C447.313 0 408.625 104.771 330.854 101.313L239.812 50.6669C236.395 48.7429 232.564 47.671 228.645 47.5419H226.541C222.609 47.6741 218.765 48.7456 215.332 50.6669L124.269 101.313C46.498 104.792 7.81027 0 7.81027 0C-9.37733 73.4587 4.35191 122.584 27.2687 155.272L12.352 163.563C8.65547 165.587 5.56802 168.563 3.4102 172.182C1.25238 175.802 0.102872 179.933 0.0810547 184.147L0.539392 488.128C0.539392 492.357 2.81024 496.294 6.66443 498.357C8.51121 499.433 10.6104 500 12.7478 500C14.8852 500 16.9844 499.433 18.8312 498.357L139.457 431.607C147.082 427.211 151.728 419.482 151.728 411.044V269.022C151.728 260.564 156.374 252.71 163.978 248.522L215.332 219.939C219.081 217.82 223.318 216.714 227.624 216.73C231.791 216.73 236.103 217.772 239.812 219.939L291.166 248.522C298.77 252.71 303.416 260.564 303.416 269.022V411.044C303.416 419.482 308.124 427.273 315.708 431.607L436.292 498.357C438.158 499.432 440.274 499.998 442.427 499.998C444.581 499.998 446.697 499.432 448.563 498.357C450.396 497.348 451.926 495.868 452.995 494.07C454.065 492.271 454.635 490.22 454.646 488.128L455.042 184.147C455.029 179.931 453.883 175.796 451.724 172.175C449.566 168.554 446.473 165.58 442.771 163.563Z" fill="black"/>
</svg>
