<svg width="460" height="500" viewBox="0 0 460 500" fill="none" xmlns="http://www.w3.org/2000/svg">
<path d="M229.58 500C222.442 500 215.805 498.142 209.606 494.928L146.388 458.655C136.892 453.604 141.651 451.767 144.51 450.849C157.325 446.717 159.704 445.798 173.019 438.431C174.439 437.513 176.359 437.972 177.778 438.89L226.261 466.92C228.139 467.838 230.54 467.838 231.959 466.92L421.612 360.812C423.491 359.894 424.451 358.057 424.451 355.761V144.006C424.451 141.71 423.512 139.873 421.612 138.955L231.959 33.3274C230.06 32.4091 227.68 32.4091 226.261 33.3274L36.6075 138.955C34.7083 139.873 33.7482 142.169 33.7482 144.006V355.761C33.7482 357.598 34.7083 359.894 36.6075 360.812L88.409 389.76C116.459 403.535 134.033 387.464 134.033 371.394V162.393C134.033 159.638 136.412 156.883 139.751 156.883H163.982C166.842 156.883 169.68 159.179 169.68 162.393V371.373C169.68 407.667 149.248 428.789 113.6 428.789C102.664 428.789 94.1067 428.789 69.8757 417.31L19.9734 389.76C13.9602 386.453 8.93864 381.602 5.42741 375.706C1.91617 369.809 0.0425323 363.083 0 356.221V144.465C0 130.69 7.597 117.834 19.9734 110.946L209.627 4.81785C215.801 1.65145 222.641 0 229.58 0C236.518 0 243.358 1.65145 249.532 4.81785L439.207 110.925C451.562 117.813 459.159 130.669 459.159 144.444V356.2C459.159 369.975 451.562 382.831 439.207 389.739L249.532 495.826C243.235 498.556 236.443 499.962 229.58 499.958V500ZM288.039 354.384C204.868 354.384 187.754 317.651 187.754 286.408C187.754 283.653 190.134 280.898 193.452 280.898H218.163C221.022 280.898 223.381 282.734 223.381 285.489C227.2 309.825 238.137 321.763 288.519 321.763C328.445 321.763 345.559 313.039 345.559 292.377C345.559 280.439 340.8 271.714 278.543 265.745C226.72 260.674 194.412 249.675 194.412 209.707C194.412 172.494 226.72 150.434 280.922 150.434C341.76 150.434 371.71 170.658 375.509 214.758C375.466 216.251 374.963 217.694 374.069 218.89C373.129 219.809 371.71 220.727 370.27 220.727H345.559C344.359 220.698 343.2 220.279 342.259 219.533C341.318 218.788 340.644 217.756 340.341 216.595C334.623 191.341 319.888 183.055 280.922 183.055C237.177 183.055 231.959 197.748 231.959 208.768C231.959 222.104 238.137 226.237 297.076 233.583C355.535 240.93 383.106 251.491 383.106 290.978C382.626 331.426 348.418 354.384 288.039 354.384Z" fill="black"/>
</svg>
