<svg width="500" height="500" viewBox="0 0 500 500" fill="none" xmlns="http://www.w3.org/2000/svg">
<path d="M359.2 0C339.193 0.146819 319.296 2.97505 300.04 8.40914L298.677 8.81824C286.547 6.74104 274.276 5.59375 261.972 5.3864C236.676 4.95458 214.926 10.9092 197.426 20.841C180.153 15.0228 144.335 5.00003 106.585 7.00004C80.289 8.38641 51.607 16.1365 30.3569 37.9093C9.15218 59.6822 -2.05243 93.3642 0.311218 139.205C0.947586 151.865 4.65215 172.478 10.834 199.206C16.9704 225.91 25.6523 257.161 36.4478 285.684C47.2433 314.229 59.0843 339.866 77.5844 357.275C86.8118 366.002 99.5164 373.343 114.494 372.73C125.017 372.32 134.539 367.843 142.744 361.229C146.744 366.343 151.017 368.57 154.903 370.639C159.789 373.23 164.562 375.002 169.494 376.184C183.152 379.68 197.376 380.384 211.313 378.252C217.381 377.275 223.767 375.366 230.131 372.639C230.358 379.502 230.631 386.23 230.926 393.048C231.79 414.639 232.358 434.571 239.04 452.048C240.108 454.912 243.04 469.617 254.654 482.594C266.245 495.594 288.972 503.685 314.836 498.321C333.086 494.526 356.313 487.685 371.723 466.412C386.95 445.366 393.836 415.162 395.2 366.207C395.541 363.57 395.95 361.32 396.382 359.207L400.018 359.525H400.427C419.905 360.389 441.041 357.707 458.7 349.752C474.337 342.707 486.155 335.616 494.769 323.002C496.928 319.888 499.292 316.116 499.928 309.593C500.564 303.116 496.746 292.934 490.36 288.252C477.564 278.843 469.541 282.411 460.928 284.161C452.45 285.979 443.814 286.979 435.109 287.184C459.95 246.638 477.746 203.547 487.905 165.41C493.905 142.91 497.292 122.16 497.564 104.023C497.837 85.8869 496.314 69.8186 485.11 55.9094C450.087 12.5001 400.836 0.500002 362.745 0.0909085C361.563 0.0681811 360.382 0.0454553 359.2 0.0681827V0ZM358.2 13.341C394.223 13.0001 440.268 22.8183 473.314 63.7958C480.746 73.0004 482.951 86.4551 482.701 103.046C482.428 119.614 479.269 139.433 473.496 161.16C462.291 203.251 441.109 252.297 411.268 296.343C412.33 297.073 413.475 297.675 414.677 298.138C420.905 300.638 435.087 302.775 463.428 297.138C470.541 295.661 475.769 294.684 481.178 298.684C482.475 299.756 483.505 301.114 484.188 302.652C484.87 304.191 485.186 305.866 485.11 307.547C484.814 310.087 483.85 312.503 482.314 314.547C476.86 322.525 466.041 330.093 452.178 336.32C439.928 341.866 422.337 344.752 406.746 344.934C398.927 345.002 391.723 344.411 385.609 342.57L385.2 342.434C382.836 364.502 377.404 408.116 373.882 428.003C371.041 444.048 366.086 456.798 356.609 466.344C347.154 475.889 333.791 481.639 315.79 485.389C293.495 490.026 277.245 485.026 266.767 476.458C256.313 467.935 251.517 456.594 248.631 449.639C246.654 444.866 245.631 438.662 244.631 430.366C243.533 420.434 242.797 410.465 242.426 400.48C241.771 382.965 241.559 365.437 241.79 347.911C232.472 356.184 220.881 361.684 208.449 363.752C193.676 366.184 180.449 363.798 172.562 361.889C168.695 360.938 164.956 359.526 161.426 357.684C157.744 355.798 154.267 353.661 151.949 349.434C150.583 347.021 150.146 344.192 150.721 341.479C151.464 338.723 153.113 336.297 155.403 334.593C159.676 331.229 165.29 329.366 173.767 327.638C189.221 324.57 194.608 322.457 197.881 319.934C200.676 317.775 203.835 313.411 209.426 306.979C209.399 306.699 209.376 306.419 209.358 306.138C199.388 305.867 189.614 303.309 180.79 298.661C177.585 301.956 161.13 318.843 141.062 342.252C132.63 352.048 123.312 357.661 113.471 358.07C103.63 358.479 94.7436 353.661 87.1981 346.57C72.0844 332.343 60.0389 307.866 49.5388 280.206C39.0842 252.524 30.5387 221.706 24.4932 195.456C18.4022 169.206 14.8113 148.046 14.3113 137.842C12.0386 94.4551 22.4932 65.2277 40.4478 46.7957C58.4025 28.3638 82.9935 21.3865 106.994 20.0456C150.039 17.6365 190.926 32.2047 199.199 35.3411C215.131 24.8411 235.654 18.2956 261.313 18.7047C273.475 18.871 285.58 20.3956 297.404 23.2501L297.836 23.0683C303.04 21.2956 308.336 19.7956 313.7 18.6138C328.3 15.3116 343.209 13.5594 358.177 13.3864L358.2 13.341ZM361.45 27.2956H358.336C346.04 27.4615 333.787 28.801 321.745 31.2957C345.649 41.705 366.651 57.7919 382.927 78.1596C392.784 90.3469 400.963 103.8 407.246 118.16C409.609 123.66 411.2 128.319 412.086 131.91C412.541 133.728 412.859 135.251 412.95 136.842C413.038 137.849 412.953 138.863 412.7 139.842L412.564 140.115C413.223 158.365 408.564 170.728 407.996 188.138C407.564 200.774 410.882 215.615 411.7 231.774C412.473 247.002 410.586 263.706 400.405 280.115C401.268 281.115 402.041 282.115 402.859 283.115C429.791 241.979 449.223 196.433 459.564 157.637C465.087 136.728 468.041 117.796 468.291 102.796C468.519 87.796 465.632 76.9096 461.95 72.3868C433.132 36.6366 394.155 27.5456 361.45 27.2956ZM258.608 32.6366C233.222 32.682 214.994 40.1366 201.199 51.273C186.949 62.7958 177.403 78.5459 171.13 94.7051C165.058 110.854 161.346 127.793 160.108 145.001L160.403 144.842C168.062 140.66 178.131 136.501 188.903 134.092C199.699 131.683 211.313 130.933 221.835 134.887C232.358 138.864 241.063 148.16 244.222 162.296C259.336 230.161 239.517 255.388 232.199 274.411C229.43 281.308 227.055 288.358 225.085 295.525C226.017 295.297 226.949 295.07 227.858 294.979C231.85 294.763 235.834 295.544 239.449 297.252C246.813 300.206 251.858 306.388 254.586 313.479C255.29 315.343 255.813 317.343 256.108 319.388C256.426 320.252 256.563 321.138 256.54 322.047C255.724 347.997 255.815 373.968 256.813 399.912C257.313 411.139 258.04 421.003 258.972 428.798C259.881 436.571 261.199 442.48 262.04 444.48C264.767 451.162 268.79 459.889 276.063 465.821C283.336 471.73 293.722 475.685 312.745 471.73C329.245 468.298 339.427 463.548 346.245 456.662C353.018 449.821 357.086 440.298 359.677 425.684C363.563 403.798 371.382 340.366 372.314 328.411C371.904 319.434 373.268 312.502 376.223 307.229C379.291 301.82 384.018 298.502 388.086 296.706C390.132 295.797 392.041 295.206 393.609 294.775C391.945 292.458 390.201 290.199 388.382 288.002C382.522 281.114 377.706 273.403 374.086 265.115C372.358 261.699 370.516 258.341 368.563 255.047C365.723 250.047 362.109 243.797 358.336 236.774C350.768 222.706 342.541 205.66 338.268 189.047C334.018 172.478 333.381 155.319 344.291 143.205C353.973 132.455 370.927 128.001 396.405 130.501C395.655 128.319 395.2 126.501 393.927 123.592C388.147 110.403 380.634 98.0437 371.586 86.8414C349.995 60.0686 315.063 33.5229 261.063 32.6593L258.608 32.6366ZM115.971 33.7048C113.244 33.7048 110.516 33.7957 107.789 33.932C86.1072 35.1366 65.6071 41.2503 50.9479 56.3413C36.2433 71.4095 26.5841 96.137 28.675 137.092C29.1069 144.819 32.5841 166.546 38.5387 192.319C44.4933 218.138 52.9479 248.479 63.0843 275.274C73.2208 302.093 85.539 325.434 97.2209 336.479C103.107 342.002 108.221 344.229 112.857 344.048C117.516 343.82 123.107 341.229 129.971 333.252C142.471 318.625 155.433 304.398 168.835 290.593C159.37 282.648 152.08 272.426 147.653 260.888C143.283 249.453 141.952 237.081 143.789 224.979C145.994 209.569 146.289 195.16 146.039 183.797C145.767 172.706 144.948 165.342 144.948 160.728V160.092C144.928 136.072 149.232 112.245 157.653 89.7506C163.653 74.2505 172.608 58.5004 186.04 45.7503C172.858 41.5457 149.449 35.1366 124.107 33.932C121.382 33.7899 118.654 33.7141 115.926 33.7048H115.971ZM382.2 143.751C367.632 143.933 359.45 147.592 355.154 152.365C349.063 159.137 348.495 171.001 352.268 185.638C356.018 200.274 363.791 216.66 371.109 230.251C374.745 237.07 378.291 243.206 381.154 248.161C384.041 253.161 386.155 256.706 387.427 259.752C388.609 262.524 389.927 264.979 391.245 267.274C396.882 255.706 397.905 244.365 397.314 232.524C396.564 217.888 393.064 202.91 393.586 187.751C394.155 170.024 397.768 158.456 398.086 144.751C392.817 144.089 387.511 143.755 382.2 143.751ZM205.381 146.137C200.929 146.179 196.495 146.697 192.153 147.683C183.524 149.715 175.196 152.862 167.38 157.046C164.767 158.41 162.244 160.001 159.88 161.796L159.426 162.206C159.562 165.251 160.176 172.637 160.449 183.478C160.676 195.365 160.403 210.524 158.039 226.888C152.903 262.524 179.54 292.025 210.858 292.07C212.676 284.752 215.699 277.343 218.699 269.524C227.426 246.729 244.585 230.115 230.131 165.228C227.767 154.615 223.085 150.319 216.631 147.887C213.013 146.647 209.204 146.055 205.381 146.137ZM375.382 150.387H376.473C377.882 150.433 379.2 150.592 380.336 150.842C381.382 151.05 382.382 151.443 383.291 152.001C383.702 152.248 384.058 152.577 384.335 152.969C384.613 153.36 384.807 153.804 384.905 154.274V154.456C384.94 155.452 384.671 156.435 384.132 157.274C383.494 158.417 382.698 159.466 381.768 160.387C379.57 162.73 376.664 164.287 373.495 164.819C370.392 165.187 367.26 164.42 364.677 162.66C363.632 161.981 362.69 161.154 361.882 160.206C361.187 159.473 360.714 158.559 360.518 157.569C360.47 157.083 360.526 156.593 360.683 156.13C360.84 155.668 361.093 155.244 361.427 154.887C362.14 154.11 362.997 153.477 363.95 153.024C367.54 151.344 371.441 150.431 375.404 150.342L375.382 150.387ZM207.472 153.887C208.608 153.887 209.813 154.001 211.04 154.16C214.313 154.615 217.244 155.456 219.472 156.706C220.563 157.274 221.517 158.001 222.335 158.91C222.76 159.394 223.085 159.958 223.29 160.569C223.493 161.176 223.563 161.819 223.494 162.456C223.283 163.659 222.721 164.773 221.881 165.66C221 166.717 219.965 167.636 218.813 168.387C215.991 170.311 212.566 171.144 209.176 170.728C205.734 170.183 202.569 168.513 200.176 165.978C199.168 164.97 198.311 163.822 197.631 162.569C196.923 161.479 196.61 160.18 196.744 158.887C197.062 156.615 198.994 155.478 200.835 154.796C202.968 154.142 205.198 153.865 207.426 153.978L207.472 153.887ZM402.018 306.888H401.95C398.791 308.025 396.2 308.479 393.995 309.388C391.803 310.208 389.984 311.8 388.882 313.866C387.518 316.252 386.382 320.502 386.723 327.729C387.7 328.379 388.774 328.87 389.905 329.184C393.564 330.275 399.723 331.002 406.609 330.888C420.291 330.729 437.155 327.638 446.109 323.593C453.45 320.275 460.269 315.956 466.36 310.775C436.428 316.775 419.541 315.184 409.155 311.025C406.585 309.994 404.181 308.593 402.018 306.866V306.888ZM229.563 308.843H229.108C227.972 308.934 226.313 309.297 223.131 312.752C215.631 320.888 213.04 325.979 206.858 330.752C200.722 335.525 192.699 338.048 176.699 341.229C171.63 342.229 168.744 343.343 166.79 344.229C167.426 344.729 167.358 344.866 168.29 345.343C170.63 346.593 173.653 347.684 176.062 348.298C182.949 349.957 194.244 351.911 206.04 349.957C217.813 348.002 230.085 342.525 240.54 328.297C242.358 325.843 242.54 322.207 241.063 318.297C239.54 314.434 236.267 311.07 233.949 310.116C232.561 309.476 231.081 309.061 229.563 308.888V308.843Z" fill="black"/>
</svg>
