<svg width="429" height="500" viewBox="0 0 429 500" fill="none" xmlns="http://www.w3.org/2000/svg">
<path d="M142.844 488.104C142.844 489.666 142.536 491.213 141.938 492.657C141.34 494.1 140.464 495.411 139.36 496.516C138.255 497.62 136.944 498.497 135.5 499.095C134.057 499.692 132.51 500 130.948 500H11.9063C8.74852 500 5.72012 498.746 3.48726 496.513C1.25441 494.28 0 491.251 0 488.094C0 484.936 1.25441 481.908 3.48726 479.675C5.72012 477.442 8.74852 476.188 11.9063 476.188H130.948C137.531 476.188 142.844 481.521 142.844 488.104ZM130.948 428.542H107.135C103.978 428.542 100.949 429.796 98.7164 432.029C96.4836 434.262 95.2292 437.29 95.2292 440.448C95.2292 443.606 96.4836 446.634 98.7164 448.867C100.949 451.1 103.978 452.354 107.135 452.354H130.948C134.106 452.354 137.134 451.1 139.367 448.867C141.6 446.634 142.854 443.606 142.854 440.448C142.854 437.29 141.6 434.262 139.367 432.029C137.134 429.796 134.106 428.542 130.948 428.542ZM11.9063 452.354H59.4896C62.6473 452.354 65.6757 451.1 67.9086 448.867C70.1414 446.634 71.3958 443.606 71.3958 440.448C71.3958 437.29 70.1414 434.262 67.9086 432.029C65.6757 429.796 62.6473 428.542 59.4896 428.542H11.9063C8.74852 428.542 5.72012 429.796 3.48726 432.029C1.25441 434.262 0 437.29 0 440.448C0 443.606 1.25441 446.634 3.48726 448.867C5.72012 451.1 8.74852 452.354 11.9063 452.354ZM130.948 380.958H11.9063C8.74852 380.958 5.72012 382.213 3.48726 384.446C1.25441 386.678 2.48353e-06 389.707 2.48353e-06 392.865C2.48353e-06 396.022 1.25441 399.051 3.48726 401.284C5.72012 403.516 8.74852 404.771 11.9063 404.771H130.948C134.106 404.771 137.134 403.516 139.367 401.284C141.6 399.051 142.854 396.022 142.854 392.865C142.854 389.707 141.6 386.678 139.367 384.446C137.134 382.213 134.106 380.958 130.948 380.958ZM297.615 333.333H83.3229C80.1652 333.333 77.1368 334.588 74.9039 336.821C72.6711 339.053 71.4167 342.082 71.4167 345.24C71.4167 348.397 72.6711 351.426 74.9039 353.659C77.1368 355.891 80.1652 357.146 83.3229 357.146H297.615C300.772 357.146 303.801 355.891 306.034 353.659C308.266 351.426 309.521 348.397 309.521 345.24C309.521 342.082 308.266 339.053 306.034 336.821C303.801 334.588 300.772 333.333 297.615 333.333ZM11.9063 357.146H35.7187C38.8765 357.146 41.9049 355.891 44.1377 353.659C46.3706 351.426 47.625 348.397 47.625 345.24C47.625 342.082 46.3706 339.053 44.1377 336.821C41.9049 334.588 38.8765 333.333 35.7187 333.333H11.9063C8.74852 333.333 5.72012 334.588 3.48726 336.821C1.25441 339.053 0 342.082 0 345.24C0 348.397 1.25441 351.426 3.48726 353.659C5.72012 355.891 8.74852 357.146 11.9063 357.146ZM369.052 285.708H297.615C294.457 285.708 291.428 286.963 289.196 289.196C286.963 291.428 285.708 294.457 285.708 297.615C285.708 300.772 286.963 303.801 289.196 306.034C291.428 308.266 294.457 309.521 297.615 309.521H369.052C372.21 309.521 375.238 308.266 377.471 306.034C379.704 303.801 380.958 300.772 380.958 297.615C380.958 294.457 379.704 291.428 377.471 289.196C375.238 286.963 372.21 285.708 369.052 285.708ZM154.76 309.521H249.99C253.147 309.521 256.176 308.266 258.409 306.034C260.641 303.801 261.896 300.772 261.896 297.615C261.896 294.457 260.641 291.428 258.409 289.196C256.176 286.963 253.147 285.708 249.99 285.708H154.76C151.603 285.708 148.574 286.963 146.341 289.196C144.109 291.428 142.854 294.457 142.854 297.615C142.854 300.772 144.109 303.801 146.341 306.034C148.574 308.266 151.603 309.521 154.76 309.521ZM11.9063 309.521H107.135C110.293 309.521 113.322 308.266 115.554 306.034C117.787 303.801 119.042 300.772 119.042 297.615C119.042 294.457 117.787 291.428 115.554 289.196C113.322 286.963 110.293 285.708 107.135 285.708H11.9063C8.74852 285.708 5.72012 286.963 3.48726 289.196C1.25441 291.428 0 294.457 0 297.615C0 300.772 1.25441 303.801 3.48726 306.034C5.72012 308.266 8.74852 309.521 11.9063 309.521ZM392.823 238.125H202.406C199.251 238.125 196.226 239.378 193.995 241.609C191.764 243.84 190.51 246.866 190.51 250.021C190.51 253.176 191.764 256.202 193.995 258.432C196.226 260.663 199.251 261.917 202.406 261.917H392.865C396.02 261.917 399.045 260.663 401.276 258.432C403.507 256.202 404.76 253.176 404.76 250.021C404.76 246.866 403.507 243.84 401.276 241.609C399.045 239.378 396.02 238.125 392.865 238.125H392.823ZM166.656 250C166.656 246.845 165.403 243.819 163.172 241.588C160.941 239.357 157.915 238.104 154.76 238.104H83.3229C80.1679 238.104 77.1422 239.357 74.9113 241.588C72.6804 243.819 71.4271 246.845 71.4271 250C71.4271 253.155 72.6804 256.181 74.9113 258.412C77.1422 260.643 80.1679 261.896 83.3229 261.896H154.76C157.915 261.896 160.941 260.643 163.172 258.412C165.403 256.181 166.656 253.155 166.656 250ZM11.9063 261.896H35.7187C38.8737 261.896 41.8995 260.643 44.1304 258.412C46.3613 256.181 47.6146 253.155 47.6146 250C47.6146 246.845 46.3613 243.819 44.1304 241.588C41.8995 239.357 38.8737 238.104 35.7187 238.104H11.9063C8.75128 238.104 5.72553 239.357 3.49463 241.588C1.26373 243.819 0.0104184 246.845 0.0104184 250C0.0104184 253.155 1.26373 256.181 3.49463 258.412C5.72553 260.643 8.75128 261.896 11.9063 261.896ZM416.656 190.479H297.615C294.457 190.479 291.428 191.734 289.196 193.966C286.963 196.199 285.708 199.228 285.708 202.385C285.708 205.543 286.963 208.572 289.196 210.804C291.428 213.037 294.457 214.292 297.615 214.292H416.656C419.814 214.292 422.842 213.037 425.075 210.804C427.308 208.572 428.562 205.543 428.562 202.385C428.562 199.228 427.308 196.199 425.075 193.966C422.842 191.734 419.814 190.479 416.656 190.479ZM11.9063 214.292H130.948C134.106 214.292 137.134 213.037 139.367 210.804C141.6 208.572 142.854 205.543 142.854 202.385C142.854 199.228 141.6 196.199 139.367 193.966C137.134 191.734 134.106 190.479 130.948 190.479H11.9063C8.74852 190.479 5.72012 191.734 3.48726 193.966C1.25441 196.199 0 199.228 0 202.385C0 205.543 1.25441 208.572 3.48726 210.804C5.72012 213.037 8.74852 214.292 11.9063 214.292ZM285.719 154.771C285.716 156.334 286.022 157.882 286.619 159.326C287.216 160.771 288.092 162.083 289.197 163.189C290.302 164.294 291.614 165.17 293.059 165.767C294.503 166.364 296.052 166.669 297.615 166.667H416.656C419.814 166.667 422.842 165.412 425.075 163.179C427.308 160.947 428.562 157.918 428.562 154.76C428.562 151.603 427.308 148.574 425.075 146.341C422.842 144.109 419.814 142.854 416.656 142.854H297.615C296.051 142.854 294.502 143.163 293.057 143.762C291.613 144.361 290.3 145.239 289.196 146.346C288.091 147.453 287.215 148.766 286.618 150.212C286.022 151.658 285.716 153.207 285.719 154.771ZM107.135 142.854C103.978 142.854 100.949 144.109 98.7164 146.341C96.4836 148.574 95.2292 151.603 95.2292 154.76C95.2292 157.918 96.4836 160.947 98.7164 163.179C100.949 165.412 103.978 166.667 107.135 166.667H130.948C134.106 166.667 137.134 165.412 139.367 163.179C141.6 160.947 142.854 157.918 142.854 154.76C142.854 151.603 141.6 148.574 139.367 146.341C137.134 144.109 134.106 142.854 130.948 142.854H107.135ZM11.9063 166.667H59.4896C62.6473 166.667 65.6757 165.412 67.9086 163.179C70.1414 160.947 71.3958 157.918 71.3958 154.76C71.3958 151.603 70.1414 148.574 67.9086 146.341C65.6757 144.109 62.6473 142.854 59.4896 142.854H11.9063C8.74852 142.854 5.72012 144.109 3.48726 146.341C1.25441 148.574 0 151.603 0 154.76C0 157.918 1.25441 160.947 3.48726 163.179C5.72012 165.412 8.74852 166.667 11.9063 166.667ZM357.135 107.146C357.135 113.708 362.469 119.042 369.052 119.042H392.844C396.001 119.042 399.03 117.787 401.263 115.554C403.496 113.322 404.75 110.293 404.75 107.135C404.75 103.978 403.496 100.949 401.263 98.7164C399.03 96.4836 396.001 95.2292 392.844 95.2292H369.073C367.507 95.2264 365.956 95.5328 364.509 96.1307C363.062 96.7286 361.748 97.6062 360.64 98.7134C359.533 99.8205 358.656 101.135 358.058 102.582C357.46 104.029 357.133 105.58 357.135 107.146ZM333.323 107.146C333.326 105.582 333.02 104.033 332.423 102.587C331.827 101.141 330.951 99.8276 329.846 98.7207C328.741 97.6139 327.429 96.7358 325.984 96.1367C324.54 95.5375 322.991 95.2292 321.427 95.2292H226.156C222.998 95.2292 219.97 96.4836 217.737 98.7164C215.504 100.949 214.25 103.978 214.25 107.135C214.25 110.293 215.504 113.322 217.737 115.554C219.97 117.787 222.998 119.042 226.156 119.042H321.406C324.561 119.042 327.587 117.788 329.818 115.557C332.049 113.327 333.302 110.301 333.302 107.146H333.323ZM11.9063 119.042H178.573C181.731 119.042 184.759 117.787 186.992 115.554C189.225 113.322 190.479 110.293 190.479 107.135C190.479 103.978 189.225 100.949 186.992 98.7164C184.759 96.4836 181.731 95.2292 178.573 95.2292H11.9063C8.74852 95.2292 5.72012 96.4836 3.48726 98.7164C1.25441 100.949 0 103.978 0 107.135C0 110.293 1.25441 113.322 3.48726 115.554C5.72012 117.787 8.74852 119.042 11.9063 119.042ZM119.052 59.5208C119.052 66.1042 124.365 71.4375 130.948 71.4375H369.052C372.21 71.4375 375.238 70.1831 377.471 67.9502C379.704 65.7174 380.958 62.689 380.958 59.5313C380.958 56.3735 379.704 53.3451 377.471 51.1123C375.238 48.8794 372.21 47.625 369.052 47.625H130.948C127.793 47.625 124.767 48.8783 122.536 51.1092C120.305 53.3401 119.052 56.3659 119.052 59.5208ZM11.9063 71.4375H83.3229C86.4807 71.4375 89.509 70.1831 91.7419 67.9502C93.9748 65.7174 95.2292 62.689 95.2292 59.5313C95.2292 56.3735 93.9748 53.3451 91.7419 51.1123C89.509 48.8794 86.4807 47.625 83.3229 47.625H11.9063C8.74852 47.625 5.72012 48.8794 3.48726 51.1123C1.25441 53.3451 0 56.3735 0 59.5313C0 62.689 1.25441 65.7174 3.48726 67.9502C5.72012 70.1831 8.74852 71.4375 11.9063 71.4375ZM11.9063 23.8125H297.615C300.772 23.8125 303.801 22.5581 306.034 20.3252C308.266 18.0924 309.521 15.064 309.521 11.9063C309.521 8.74852 308.266 5.72011 306.034 3.48726C303.801 1.2544 300.772 0 297.615 0L11.9063 0C8.74852 0 5.72012 1.2544 3.48726 3.48726C1.25441 5.72011 0 8.74852 0 11.9063C0 15.064 1.25441 18.0924 3.48726 20.3252C5.72012 22.5581 8.74852 23.8125 11.9063 23.8125Z" fill="black"/>
</svg>
