<svg width="522" height="500" viewBox="0 0 522 500" fill="none" xmlns="http://www.w3.org/2000/svg">
<path d="M361.527 349.196C380.766 347.196 395.375 330.435 394.723 310.326C394.397 300.661 390.347 291.496 383.418 284.75C376.489 278.003 367.219 274.198 357.549 274.13H356.201C335.614 274.783 319.679 292.217 320.331 313C321.027 323.065 325.005 331.761 330.984 337.783C308.397 382.717 273.875 415.543 222.071 443.022C186.897 461.804 150.375 468.5 113.875 463.804C83.9836 459.783 60.7445 446.37 46.1358 424.261C24.8967 391.435 22.9184 355.891 40.8315 320.37C53.4402 294.913 73.375 276.13 85.9837 266.761C82.5639 255.506 79.6838 244.095 77.3532 232.565C-18.9294 302.957 -8.95113 398.13 20.2228 443.043C42.1358 476.565 86.6141 497.348 135.766 497.348C149.185 497.439 162.563 495.861 175.592 492.652C260.592 475.913 324.984 424.956 361.505 349.217L361.527 349.196ZM478.375 266.087C427.918 206.435 353.549 173.587 268.571 173.587H257.94C254.913 167.553 250.269 162.477 244.527 158.927C238.785 155.376 232.17 153.49 225.418 153.478H224.071C203.505 154.152 187.549 171.587 188.223 192.37C188.875 212.478 205.484 228.543 225.397 228.543H226.745C233.757 228.181 240.526 225.852 246.277 221.823C252.028 217.794 256.53 212.228 259.266 205.761H271.223C321.679 205.761 369.484 220.5 412.636 249.326C445.831 271.457 469.745 300.261 483.005 335.13C494.31 363.261 493.658 390.739 481.701 414.217C463.092 449.739 431.897 469.174 390.723 469.174C364.179 469.174 338.94 461.13 325.658 455.087C316.1 463.613 306.132 471.666 295.788 479.217C324.331 492.63 353.549 500 381.44 500C445.179 500 492.31 464.478 510.245 428.957C529.484 390.087 528.158 323.065 478.375 266.087ZM141.092 360.587C141.745 380.696 158.353 396.783 178.266 396.783H179.592C200.179 396.13 216.114 378.696 215.462 357.913C215.137 348.248 211.086 339.083 204.157 332.336C197.228 325.59 187.958 321.785 178.288 321.717H176.94C175.361 321.613 173.777 321.835 172.288 322.37C145.071 276.804 133.788 227.217 137.766 173.587C140.418 133.37 153.701 98.5217 176.94 69.6957C196.201 44.913 233.375 32.8478 258.614 32.1739C328.984 30.8261 358.853 119.304 360.853 154.826C369.484 156.826 384.092 161.522 394.049 164.87C386.071 56.3043 319.701 0 255.94 0C196.201 0 141.092 43.5652 119.179 107.913C88.6358 193.696 108.549 276.13 145.745 341.152C142.418 345.848 140.418 353.217 141.092 360.587Z" fill="black"/>
</svg>
