<svg width="500" height="500" viewBox="0 0 500 500" fill="none" xmlns="http://www.w3.org/2000/svg">
<path d="M451.111 0H48.8889C35.9228 0 23.4877 5.15078 14.3192 14.3192C5.15078 23.4877 0 35.9228 0 48.8889V451.111C0 464.077 5.15078 476.512 14.3192 485.681C23.4877 494.849 35.9228 500 48.8889 500H451.111C457.531 500 463.889 498.735 469.82 496.279C475.752 493.822 481.141 490.221 485.681 485.681C490.221 481.141 493.822 475.752 496.279 469.82C498.735 463.889 500 457.531 500 451.111V48.8889C500 42.4687 498.735 36.1114 496.279 30.1799C493.822 24.2485 490.221 18.859 485.681 14.3192C481.141 9.77947 475.752 6.17834 469.82 3.72144C463.889 1.26455 457.531 0 451.111 0ZM290 277.778H227.5V456.667H177.778V277.778H115.278V237.222H290V277.778ZM451.111 424.444C447.09 432.995 440.61 440.152 432.5 445C423.967 450.252 414.557 453.921 404.722 455.833C393.757 458.098 382.586 459.215 371.389 459.167C359.932 459.157 348.499 458.134 337.222 456.111C327.637 454.148 318.315 451.072 309.444 446.944V399.444L307.778 397.778H309.444V399.722C317.799 406.241 327.189 411.311 337.222 414.722C347.241 418.537 357.891 420.422 368.611 420.278C374.213 420.376 379.806 419.816 385.278 418.611C389.387 417.649 393.323 416.056 396.944 413.889C399.78 412.161 402.161 409.78 403.889 406.944C405.599 403.716 406.351 400.065 406.056 396.423C405.761 392.782 404.43 389.3 402.222 386.389C399.611 382.728 396.308 379.614 392.5 377.222C387.876 373.971 382.945 371.18 377.778 368.889L359.167 361.111C344.434 355.043 331.381 345.515 321.111 333.333C312.517 322.973 307.976 309.845 308.333 296.389C308.01 286.166 310.305 276.031 315 266.944C319.481 259.024 325.761 252.269 333.333 247.222C341.77 241.609 351.197 237.65 361.111 235.556C371.95 233.061 383.045 231.849 394.167 231.944C404.295 231.803 414.418 232.453 424.444 233.889C432.786 235.193 440.976 237.333 448.889 240.278V286.111C445.232 283.505 441.324 281.271 437.222 279.444C432.805 277.543 428.256 275.965 423.611 274.722C419.159 273.419 414.606 272.49 410 271.944C405.75 271.544 401.472 271.544 397.222 271.944C391.988 271.858 386.764 272.418 381.667 273.611C377.486 274.488 373.459 275.986 369.722 278.056C366.805 279.774 364.332 282.153 362.5 285C360.837 287.767 359.972 290.939 360 294.167C359.932 297.612 360.9 300.999 362.778 303.889C365.059 307.044 367.881 309.771 371.111 311.944C375.028 315.062 379.32 317.675 383.889 319.722L401.389 327.5C409.435 330.826 417.233 334.725 424.722 339.167C431.308 342.771 437.303 347.361 442.5 352.778C447.592 357.712 451.57 363.679 454.167 370.278C456.83 377.861 458.147 385.852 458.056 393.889C457.857 404.264 455.491 414.482 451.111 423.889V424.444Z" fill="black"/>
</svg>
